<svg width="827" height="827" viewBox="0 0 827 827" fill="none" xmlns="http://www.w3.org/2000/svg">
<path d="M298.639 211.804C298.639 181.341 310.74 152.125 332.281 130.585C353.822 109.044 383.037 96.9428 413.5 96.9428C443.963 96.9428 473.178 109.044 494.719 130.585C516.26 152.125 528.361 181.341 528.361 211.804V275.667H574.306V211.804C574.306 190.687 570.146 169.776 562.065 150.266C553.984 130.756 542.139 113.029 527.207 98.0972C512.274 83.165 494.547 71.3202 475.038 63.2389C455.528 55.1577 434.617 50.9984 413.5 50.9984C392.383 50.9984 371.472 55.1577 351.962 63.2389C332.453 71.3202 314.725 83.165 299.793 98.0972C284.861 113.029 273.016 130.756 264.935 150.266C256.854 169.776 252.694 190.687 252.694 211.804V275.667H298.639V211.804Z" fill="#6777EF"/>
<path d="M574.417 275.667V346.881C574.417 352.973 571.996 358.816 567.688 363.124C563.38 367.433 557.537 369.853 551.444 369.853C545.352 369.853 539.509 367.433 535.201 363.124C530.893 358.816 528.472 352.973 528.472 346.881V275.667H298.75V346.881C298.75 352.973 296.33 358.816 292.022 363.124C287.713 367.433 281.87 369.853 275.778 369.853C269.685 369.853 263.842 367.433 259.534 363.124C255.226 358.816 252.806 352.973 252.806 346.881V275.667H92V735.111C92 747.296 96.8406 758.982 105.457 767.599C114.073 776.215 125.759 781.055 137.944 781.055H689.278C701.463 781.055 713.149 776.215 721.765 767.599C730.382 758.982 735.222 747.296 735.222 735.111V275.667H574.417Z" fill="#6777EF"/>
<path d="M476.781 557.699V530.102H369.906V447.836H492.953V420.062H337.387V676H494.535V648.402H369.906V557.699H476.781Z" fill="white"/>
</svg>
